<?xml version="1.0" standalone="no"?>
<!DOCTYPE svg PUBLIC "-//W3C//DTD SVG 20010904//EN"
 "http://www.w3.org/TR/2001/REC-SVG-20010904/DTD/svg10.dtd">
<svg version="1.0" xmlns="http://www.w3.org/2000/svg"
 width="709.000000pt" height="709.000000pt" viewBox="0 0 709.000000 709.000000"
 preserveAspectRatio="xMidYMid meet">
<metadata>
Created by potrace 1.14, written by Peter Selinger 2001-2017
</metadata>
<g transform="translate(0.000000,709.000000) scale(0.100000,-0.100000)"
fill="#000000" stroke="none">
<path d="M4630 5553 c0 -4 -24 -8 -52 -9 -78 -1 -128 -7 -128 -15 0 -3 -14 -6
-31 -7 -17 0 -37 -6 -45 -12 -7 -7 -21 -10 -29 -6 -8 3 -15 1 -15 -4 0 -4 -22
-16 -50 -25 -27 -9 -50 -21 -50 -26 0 -5 -3 -8 -7 -7 -5 2 -26 -8 -48 -21 -22
-13 -41 -22 -42 -20 -2 2 -10 -6 -18 -19 -9 -12 -20 -20 -25 -17 -4 3 -11 -2
-14 -11 -3 -9 -11 -12 -18 -8 -7 4 -10 4 -6 0 3 -4 -21 -36 -55 -70 -63 -63
-97 -103 -97 -111 0 -2 -13 -24 -30 -48 -16 -25 -30 -50 -30 -56 0 -6 -4 -11
-10 -11 -5 0 -10 -6 -10 -14 0 -7 -11 -39 -25 -70 -14 -31 -24 -60 -24 -64 1
-4 0 -9 -1 -12 -4 -11 -11 -46 -13 -67 -1 -13 -5 -23 -9 -23 -3 0 -5 -14 -4
-30 1 -17 -1 -35 -5 -42 -4 -6 -3 -22 2 -35 5 -15 5 -22 0 -18 -13 7 -9 -48 4
-57 6 -5 6 -8 -1 -8 -7 0 -10 -12 -7 -27 2 -16 6 -46 8 -68 5 -44 12 -80 16
-80 1 0 8 -34 11 -62 1 -7 5 -13 10 -13 4 0 8 -11 8 -25 0 -14 5 -25 10 -25 6
0 10 -6 10 -13 0 -33 115 -224 142 -235 4 -2 6 -8 2 -13 -3 -5 2 -9 11 -9 9 0
14 -4 10 -9 -3 -5 4 -12 15 -16 11 -3 20 -13 20 -21 0 -8 5 -14 10 -14 6 0 21
-11 34 -25 13 -14 28 -25 34 -25 6 0 15 -6 19 -13 4 -8 27 -24 51 -37 23 -13
42 -28 42 -33 0 -5 7 -7 15 -3 8 3 15 1 15 -4 0 -6 8 -10 17 -10 9 0 24 -6 32
-13 19 -16 144 -57 186 -60 17 -2 35 -6 40 -9 6 -3 44 -6 85 -7 41 -2 78 -4
81 -7 4 -2 11 0 14 6 5 8 11 7 21 -1 11 -9 14 -8 14 2 0 11 2 11 10 -1 5 -8
10 -10 10 -4 0 6 12 12 28 12 24 2 59 7 72 12 3 1 10 3 15 5 6 1 12 3 15 4 8
4 43 11 63 13 9 1 17 6 17 10 0 4 7 8 15 8 8 0 30 9 50 20 19 11 35 18 35 15
0 -3 24 11 54 30 29 19 57 31 61 27 5 -4 5 -2 1 5 -3 7 2 14 14 18 11 3 20 13
20 21 0 8 4 12 10 9 13 -8 174 158 163 169 -3 3 2 8 11 12 9 3 16 12 16 20 0
8 5 14 11 14 5 0 7 5 4 10 -3 6 1 13 9 16 9 3 13 10 11 15 -3 4 2 17 12 27 10
10 20 27 21 37 2 11 7 22 10 25 8 5 14 28 15 48 0 6 4 12 9 12 5 0 7 4 3 9 -3
5 -1 12 4 16 5 3 8 14 6 25 -2 11 0 20 4 20 4 0 8 6 8 13 1 6 4 30 7 52 11 64
18 138 17 170 0 30 -2 41 -17 150 -4 33 -7 63 -6 68 1 4 -2 7 -7 7 -5 0 -12
17 -16 38 -6 35 -88 211 -103 222 -15 10 -46 65 -43 75 1 6 0 7 -4 3 -7 -7
-45 27 -45 40 0 4 -9 14 -20 22 -11 8 -20 20 -20 27 0 7 -4 12 -9 11 -5 -2
-25 12 -45 30 -20 18 -36 30 -36 27 0 -3 -6 -1 -12 5 -49 41 -159 103 -196
111 -4 1 -18 6 -31 11 -14 5 -31 6 -38 4 -8 -3 -12 -2 -9 3 5 8 -13 13 -84 27
-8 2 -31 4 -50 6 -19 2 -38 8 -42 13 -5 6 -8 6 -8 -1 0 -12 -49 -12 -68 0 -7
4 -12 4 -12 -1z"/>
<path d="M2425 5540 c-3 -5 -14 -7 -25 -5 -11 2 -22 -1 -25 -6 -4 -5 -11 -7
-16 -4 -5 4 -9 1 -9 -5 0 -6 -4 -9 -9 -6 -13 8 -82 -63 -107 -110 -30 -57 -48
-88 -55 -94 -6 -6 -22 -41 -23 -53 -1 -4 -6 -11 -12 -15 -6 -4 -14 -17 -18
-29 -4 -13 -12 -23 -17 -23 -6 0 -7 -4 -4 -10 3 -5 1 -10 -5 -10 -7 0 -9 -7
-6 -15 3 -9 -1 -18 -9 -21 -8 -4 -15 -12 -15 -20 0 -8 -4 -14 -8 -14 -5 0 -14
-16 -22 -35 -8 -19 -17 -35 -21 -35 -6 0 -20 -37 -18 -49 1 -2 -6 -8 -15 -13
-9 -5 -16 -16 -16 -23 0 -8 -5 -15 -11 -15 -5 0 -7 -5 -4 -10 3 -6 -1 -13 -10
-16 -9 -4 -14 -12 -11 -19 3 -8 -2 -16 -10 -19 -9 -3 -12 -10 -9 -16 3 -5 1
-10 -4 -10 -6 0 -11 -6 -11 -14 0 -8 -6 -21 -12 -28 -20 -20 -60 -98 -52 -98
4 0 -1 -7 -12 -15 -10 -8 -15 -15 -11 -15 5 0 2 -7 -5 -15 -30 -33 -38 -45
-38 -55 0 -6 -13 -31 -30 -54 -16 -24 -26 -46 -23 -49 3 -4 -2 -9 -11 -13 -9
-3 -13 -10 -10 -15 3 -5 0 -9 -6 -9 -6 0 -9 -4 -5 -9 3 -6 -3 -14 -12 -20 -10
-6 -14 -11 -10 -11 5 0 -1 -13 -12 -29 -11 -15 -18 -31 -14 -35 3 -3 2 -6 -4
-6 -9 0 -37 -50 -33 -59 1 -2 -5 -8 -14 -13 -9 -5 -14 -13 -11 -19 4 -5 -1
-12 -9 -15 -9 -3 -14 -10 -11 -14 3 -5 -7 -22 -21 -39 -14 -17 -23 -31 -19
-31 3 0 -3 -13 -14 -29 -11 -15 -18 -31 -14 -35 3 -3 2 -6 -4 -6 -8 0 -34 -42
-37 -60 -1 -3 -6 -12 -11 -20 -22 -34 -27 -112 -11 -152 8 -18 14 -37 14 -41
1 -5 10 -17 21 -26 11 -10 17 -22 13 -26 -4 -5 -2 -5 5 -1 6 3 16 -2 22 -11 6
-10 11 -14 11 -9 0 4 11 1 24 -7 18 -12 54 -16 149 -18 69 0 130 2 136 5 6 4
11 2 11 -5 0 -8 3 -9 13 0 8 6 16 8 19 5 5 -5 519 -8 545 -3 4 1 13 1 18 0 29
-5 347 -1 355 4 6 3 10 1 10 -6 0 -8 3 -9 13 0 8 6 17 8 20 5 5 -6 444 -6 477
-1 8 2 25 8 36 15 12 6 24 8 28 5 3 -3 6 0 6 8 0 8 11 23 25 33 14 10 25 25
25 32 0 8 5 14 11 14 5 0 8 4 4 9 -3 5 -1 12 4 15 14 9 10 128 -5 152 -8 11
-11 24 -7 27 3 4 1 7 -5 7 -7 0 -12 7 -12 15 0 8 -4 15 -10 15 -5 0 -10 9 -10
21 0 11 -4 17 -10 14 -9 -5 -11 -1 -10 20 1 3 -6 13 -15 21 -8 9 -13 20 -10
25 4 5 2 9 -3 9 -5 0 -15 14 -22 30 -7 17 -17 30 -23 30 -6 0 -7 3 -4 6 3 4
-3 18 -13 32 -11 13 -20 30 -20 37 0 7 -7 15 -15 19 -8 3 -15 15 -15 26 0 11
-5 20 -11 20 -5 0 -7 5 -4 10 3 6 2 10 -3 10 -5 0 -14 12 -21 28 -7 15 -20 38
-29 52 -9 14 -17 32 -19 40 -1 8 -9 20 -17 26 -9 6 -16 18 -16 26 0 9 -7 21
-15 28 -8 7 -13 16 -10 20 3 4 -2 11 -11 14 -8 3 -12 10 -9 16 3 5 1 10 -4 10
-6 0 -11 7 -11 15 0 8 -4 15 -10 15 -5 0 -10 6 -10 13 0 7 -13 34 -30 60 -16
26 -27 47 -24 47 3 0 -2 7 -10 16 -9 8 -16 22 -16 30 0 8 -4 12 -10 9 -5 -3
-10 3 -10 13 0 11 -7 25 -15 32 -8 7 -12 16 -9 21 3 5 -2 12 -10 15 -9 3 -13
10 -10 15 3 5 2 9 -3 9 -4 0 -17 20 -28 45 -11 25 -23 45 -28 45 -4 0 -5 5 -2
10 3 6 1 10 -4 10 -6 0 -11 7 -11 15 0 8 -4 15 -8 15 -9 0 -47 71 -44 83 1 4
-3 7 -9 7 -5 0 -7 5 -4 10 3 6 2 10 -3 10 -5 0 -20 21 -33 47 -13 26 -29 53
-35 59 -6 7 -17 26 -24 43 -7 17 -17 31 -22 31 -5 0 -7 4 -4 8 3 5 -4 18 -14
30 -11 12 -20 25 -20 30 0 5 -11 15 -25 22 -14 7 -25 17 -25 22 0 4 -11 8 -25
8 -14 0 -25 5 -25 12 0 6 -3 9 -6 5 -3 -3 -17 -2 -30 3 -14 6 -26 6 -29 0z"/>
<path d="M1585 3372 c-53 -11 -135 -65 -135 -90 0 -5 -7 -15 -15 -22 -9 -7
-14 -19 -11 -26 3 -7 1 -16 -3 -19 -14 -8 -6 -102 10 -121 12 -16 12 -17 -1
-9 -8 4 -4 -4 9 -18 14 -15 20 -27 15 -27 -5 0 -1 -7 10 -15 10 -7 15 -18 11
-24 -3 -6 -1 -11 4 -11 6 0 11 -7 11 -15 0 -8 5 -15 11 -15 5 0 7 -4 4 -10 -3
-5 -3 -10 2 -10 4 0 22 -26 38 -58 17 -31 32 -59 35 -62 6 -6 24 -37 54 -92
11 -21 23 -38 28 -38 4 0 5 -6 2 -14 -3 -7 2 -16 10 -19 9 -4 16 -16 16 -27 0
-11 5 -20 10 -20 6 0 10 -5 10 -12 0 -6 6 -19 14 -27 7 -9 26 -41 42 -71 16
-30 35 -61 42 -68 7 -8 10 -18 7 -23 -4 -5 -2 -9 2 -9 5 0 20 -21 33 -47 14
-26 31 -54 38 -61 7 -8 10 -17 7 -22 -3 -4 2 -11 11 -14 8 -3 12 -10 9 -16 -3
-5 -1 -10 4 -10 6 0 11 -7 11 -15 0 -8 5 -15 11 -15 5 0 7 -4 4 -10 -3 -5 -2
-10 3 -10 5 0 12 -8 15 -17 8 -25 50 -97 62 -105 7 -5 7 -8 0 -8 -5 0 -1 -7 9
-15 11 -8 17 -15 13 -15 -4 0 4 -18 18 -40 14 -22 25 -44 25 -50 0 -5 4 -10 9
-10 10 0 27 -39 23 -52 -1 -5 3 -8 9 -8 5 0 15 -13 20 -30 6 -16 15 -30 21
-30 5 0 6 -5 3 -10 -3 -5 -1 -10 4 -10 6 0 11 -7 11 -15 0 -8 5 -15 10 -15 6
0 10 -9 10 -20 0 -11 5 -20 10 -20 6 0 10 -6 10 -14 0 -7 7 -19 15 -26 9 -7
13 -15 11 -17 -6 -6 53 -64 82 -81 34 -19 134 -23 165 -7 15 8 27 12 27 9 0
-2 10 5 23 16 12 10 31 26 42 35 11 9 13 14 5 10 -8 -4 -6 2 6 12 11 10 21 23
22 28 6 29 14 45 23 45 6 0 7 5 4 10 -3 6 1 13 9 16 9 3 13 10 10 15 -3 5 0 9
6 9 6 0 8 5 5 10 -3 6 -2 10 2 10 5 0 15 16 22 35 7 19 17 35 22 35 5 0 9 7 9
15 0 8 5 15 11 15 5 0 8 4 5 9 -3 5 1 14 9 21 8 7 15 18 15 25 0 7 7 18 15 25
8 7 13 15 10 19 -2 4 6 18 18 32 12 14 23 31 25 39 2 8 8 17 13 18 5 2 9 12 9
21 0 10 9 28 20 41 11 13 20 27 20 32 0 5 7 16 15 25 8 8 13 19 10 24 -4 5 -2
9 3 9 5 0 24 28 42 63 18 34 38 65 44 69 6 4 7 8 2 8 -6 0 -1 7 10 15 10 8 15
15 10 15 -5 0 -2 7 5 16 7 9 14 22 15 29 1 7 9 21 18 31 9 11 16 22 16 27 0 4
9 17 19 29 11 11 18 24 16 28 -3 4 4 18 15 30 11 12 17 26 15 30 -3 4 2 10 10
14 8 3 15 12 15 21 0 8 5 15 12 15 6 0 8 3 5 7 -4 3 0 15 10 25 9 10 12 18 7
18 -5 0 -4 4 1 8 16 11 67 102 58 102 -4 0 0 5 10 11 9 5 17 17 17 24 0 8 5
15 11 15 5 0 7 5 4 10 -3 6 -2 10 4 10 6 0 13 11 17 25 3 14 10 25 16 25 5 0
7 4 4 9 -4 5 -2 11 3 13 5 1 11 10 13 18 2 8 11 23 20 34 10 10 15 23 12 28
-3 4 -1 8 4 8 20 0 43 114 29 138 -5 6 -5 12 -1 12 3 0 0 8 -7 17 -12 15 -12
16 1 8 9 -5 8 0 -4 13 -11 12 -15 22 -11 22 4 0 -6 14 -23 30 -18 17 -28 30
-24 30 4 1 -11 9 -33 19 -21 11 -47 18 -57 16 -10 -2 -18 0 -18 4 0 8 -1646
11 -1685 3z"/>
<path d="M3785 3370 c-11 -4 -23 -6 -27 -3 -5 2 -8 -1 -8 -7 0 -6 -4 -9 -9 -5
-6 3 -14 -3 -20 -12 -6 -10 -11 -14 -11 -10 0 4 -13 -6 -29 -22 -32 -32 -67
-113 -56 -130 3 -6 0 -11 -7 -11 -9 0 -10 -3 -2 -8 6 -4 10 -15 8 -24 -1 -10
2 -20 7 -24 5 -3 6 -10 3 -16 -4 -6 -3 -13 2 -17 5 -3 20 -27 33 -53 13 -27
28 -48 33 -48 5 0 7 -4 3 -9 -3 -5 2 -16 10 -24 8 -9 15 -20 15 -26 0 -6 5
-11 11 -11 6 0 9 -6 7 -12 -3 -7 -1 -17 4 -23 24 -27 78 -118 73 -123 -2 -3 5
-13 17 -23 11 -11 18 -19 14 -19 -3 0 1 -12 11 -26 29 -44 53 -88 59 -106 4
-10 10 -18 15 -18 5 0 9 -9 9 -20 0 -11 5 -20 10 -20 6 0 10 -7 10 -15 0 -8 4
-15 8 -15 5 0 14 -16 22 -35 8 -19 17 -35 22 -35 4 0 8 -7 8 -15 0 -8 5 -15
11 -15 5 0 8 -4 5 -9 -3 -5 4 -20 15 -35 11 -14 17 -26 12 -26 -4 0 0 -5 10
-11 9 -5 17 -18 17 -28 0 -11 7 -22 16 -25 8 -3 12 -10 9 -16 -3 -6 1 -13 9
-16 9 -3 14 -10 11 -14 -3 -5 2 -16 11 -24 8 -9 12 -16 8 -16 -3 0 -1 -7 6
-15 17 -21 49 -76 56 -97 4 -10 11 -18 17 -18 6 0 8 -3 4 -6 -3 -4 1 -13 9
-21 8 -8 12 -19 9 -24 -4 -5 -2 -9 3 -9 5 0 15 -13 22 -30 7 -16 17 -30 22
-30 5 0 6 -4 3 -10 -3 -5 -2 -10 4 -10 10 0 27 -38 23 -52 -1 -5 2 -8 6 -8 5
0 17 -18 28 -40 10 -22 22 -40 25 -40 3 0 11 -16 19 -35 8 -19 17 -35 22 -35
4 0 8 -7 8 -15 0 -8 5 -15 10 -15 6 0 10 -6 10 -12 0 -15 32 -46 73 -73 30
-19 157 -30 157 -13 0 5 3 7 8 4 4 -2 25 7 47 20 22 13 36 24 31 24 -5 0 1 8
12 19 12 10 22 23 22 30 0 6 3 11 8 11 4 0 15 17 25 38 27 54 53 100 67 117 7
8 9 15 4 15 -5 0 -4 4 2 8 13 8 124 199 124 213 0 5 5 9 10 9 6 0 10 6 10 14
0 8 6 21 13 28 6 7 23 35 37 61 13 26 28 47 33 47 4 0 6 4 3 9 -3 5 4 21 16
37 12 15 23 34 25 42 1 8 8 19 15 23 7 5 9 9 3 9 -7 0 -7 3 0 8 11 8 22 26 69
112 16 30 36 61 43 68 7 8 11 17 8 22 -3 4 2 11 11 14 9 4 14 9 11 13 -4 3 2
17 13 31 11 13 17 28 14 33 -3 5 -1 9 3 9 5 0 19 20 33 45 14 25 28 45 32 45
5 0 7 3 6 8 -3 12 25 62 34 62 5 0 7 4 3 9 -3 5 2 16 10 24 8 9 15 20 15 26 0
6 9 20 20 31 11 11 18 20 15 20 -3 0 1 14 10 30 9 17 20 30 25 30 6 0 10 3 9
8 -2 14 13 52 21 52 7 0 19 33 21 57 0 5 5 14 11 21 6 6 7 12 4 12 -4 0 -2 9
4 20 8 14 8 20 0 20 -6 0 -8 4 -5 10 11 17 -17 87 -49 123 -32 36 -116 83
-116 65 0 -7 -4 -7 -12 -1 -15 12 -1662 14 -1693 3z"/>
</g>
</svg>
